{
  "asset": {
    "version": "2.0",
    "generator": "bloch-sphere-procedural"
  },
  "scene": 0,
  "scenes": [
    {
      "nodes": [
        0
      ]
    }
  ],
  "nodes": [
    {
      "name": "BlochSphere",
      "children": [
        1,
        2,
        3,
        4,
        5,
        6,
        7,
        8,
        9,
        10,
        11,
        12
      ]
    },
    {
      "name": "SphereSurface",
      "mesh": 0
    },
    {
      "name": "LatitudeLines",
      "mesh": 1
    },
    {
      "name": "LongitudeLines",
      "mesh": 2
    },
    {
      "name": "XAxis",
      "mesh": 3
    },
    {
      "name": "YAxis",
      "mesh": 4
    },
    {
      "name": "ZAxis",
      "mesh": 5
    },
    {
      "name": "Origin",
      "mesh": 6
    },
    {
      "name": "StateVector",
      "mesh": 7,
      "translation": [
        0.0,
        0.0,
        0.0
      ],
      "rotation": [
        0.0,
        0.0,
        0.0,
        1.0
      ],
      "scale": [
        1.0,
        1.0,
        1.0
      ]
    },
    {
      "name": "StatePoint",
      "mesh": 8
    },
    {
      "name": "NorthPole",
      "mesh": 9
    },
    {
      "name": "SouthPole",
      "mesh": 10
    },
    {
      "name": "Halo",
      "mesh": 11
    }
  ],
  "meshes": [
    {
      "primitives": [
        {
          "attributes": {
            "POSITION": 0,
            "NORMAL": 1
          },
          "indices": 2,
          "material": 0,
          "mode": 4
        }
      ]
    },
    {
      "primitives": [
        {
          "attributes": {
            "POSITION": 3,
            "NORMAL": 4
          },
          "indices": 5,
          "material": 1,
          "mode": 4
        }
      ]
    },
    {
      "primitives": [
        {
          "attributes": {
            "POSITION": 6,
            "NORMAL": 7
          },
          "indices": 8,
          "material": 2,
          "mode": 4
        }
      ]
    },
    {
      "primitives": [
        {
          "attributes": {
            "POSITION": 9,
            "NORMAL": 10
          },
          "indices": 11,
          "material": 3,
          "mode": 4
        }
      ]
    },
    {
      "primitives": [
        {
          "attributes": {
            "POSITION": 12,
            "NORMAL": 13
          },
          "indices": 14,
          "material": 4,
          "mode": 4
        }
      ]
    },
    {
      "primitives": [
        {
          "attributes": {
            "POSITION": 15,
            "NORMAL": 16
          },
          "indices": 17,
          "material": 5,
          "mode": 4
        }
      ]
    },
    {
      "primitives": [
        {
          "attributes": {
            "POSITION": 18,
            "NORMAL": 19
          },
          "indices": 20,
          "material": 6,
          "mode": 4
        }
      ]
    },
    {
      "primitives": [
        {
          "attributes": {
            "POSITION": 21,
            "NORMAL": 22
          },
          "indices": 23,
          "material": 7,
          "mode": 4
        }
      ]
    },
    {
      "primitives": [
        {
          "attributes": {
            "POSITION": 24,
            "NORMAL": 25
          },
          "indices": 26,
          "material": 8,
          "mode": 4
        }
      ]
    },
    {
      "primitives": [
        {
          "attributes": {
            "POSITION": 27,
            "NORMAL": 28
          },
          "indices": 29,
          "material": 9,
          "mode": 4
        }
      ]
    },
    {
      "primitives": [
        {
          "attributes": {
            "POSITION": 30,
            "NORMAL": 31
          },
          "indices": 32,
          "material": 10,
          "mode": 4
        }
      ]
    },
    {
      "primitives": [
        {
          "attributes": {
            "POSITION": 33,
            "NORMAL": 34
          },
          "indices": 35,
          "material": 11,
          "mode": 4
        }
      ]
    }
  ],
  "materials": [
    {
      "name": "SphereSurface",
      "pbrMetallicRoughness": {
        "baseColorFactor": [
          0.0658,
          0.0114,
          0.256,
          0.3
        ],
        "metallicFactor": 0.0,
        "roughnessFactor": 0.25
      },
      "emissiveFactor": [
        0.02,
        0.005,
        0.08
      ],
      "alphaMode": "BLEND",
      "doubleSided": true
    },
    {
      "name": "LatitudeLines",
      "pbrMetallicRoughness": {
        "baseColorFactor": [
          0.1384,
          0.0212,
          0.5457,
          0.55
        ],
        "metallicFactor": 0.0,
        "roughnessFactor": 0.3
      },
      "emissiveFactor": [
        0.05,
        0.01,
        0.2
      ],
      "alphaMode": "BLEND",
      "doubleSided": true
    },
    {
      "name": "LongitudeLines",
      "pbrMetallicRoughness": {
        "baseColorFactor": [
          0.1384,
          0.0212,
          0.5457,
          0.55
        ],
        "metallicFactor": 0.0,
        "roughnessFactor": 0.3
      },
      "emissiveFactor": [
        0.05,
        0.01,
        0.2
      ],
      "alphaMode": "BLEND",
      "doubleSided": true
    },
    {
      "name": "XAxis",
      "pbrMetallicRoughness": {
        "baseColorFactor": [
          0.5133,
          0.2982,
          1.0,
          1.0
        ],
        "metallicFactor": 0.0,
        "roughnessFactor": 0.35
      },
      "emissiveFactor": [
        0.15,
        0.08,
        0.35
      ],
      "alphaMode": "OPAQUE",
      "doubleSided": true
    },
    {
      "name": "YAxis",
      "pbrMetallicRoughness": {
        "baseColorFactor": [
          0.3752,
          0.1542,
          1.0,
          1.0
        ],
        "metallicFactor": 0.0,
        "roughnessFactor": 0.35
      },
      "emissiveFactor": [
        0.12,
        0.05,
        0.3
      ],
      "alphaMode": "OPAQUE",
      "doubleSided": true
    },
    {
      "name": "ZAxis",
      "pbrMetallicRoughness": {
        "baseColorFactor": [
          1.0,
          1.0,
          1.0,
          1.0
        ],
        "metallicFactor": 0.0,
        "roughnessFactor": 0.3
      },
      "emissiveFactor": [
        0.5,
        0.5,
        0.5
      ],
      "alphaMode": "OPAQUE",
      "doubleSided": true
    },
    {
      "name": "Origin",
      "pbrMetallicRoughness": {
        "baseColorFactor": [
          0.1384,
          0.0212,
          0.5457,
          1.0
        ],
        "metallicFactor": 0.0,
        "roughnessFactor": 0.35
      },
      "emissiveFactor": [
        0.08,
        0.015,
        0.3
      ],
      "alphaMode": "OPAQUE",
      "doubleSided": true
    },
    {
      "name": "StateVector",
      "pbrMetallicRoughness": {
        "baseColorFactor": [
          0.252,
          0.0478,
          0.973,
          1.0
        ],
        "metallicFactor": 0.0,
        "roughnessFactor": 0.25
      },
      "emissiveFactor": [
        0.25,
        0.05,
        0.95
      ],
      "alphaMode": "OPAQUE",
      "doubleSided": true
    },
    {
      "name": "StatePoint",
      "pbrMetallicRoughness": {
        "baseColorFactor": [
          1.0,
          1.0,
          1.0,
          1.0
        ],
        "metallicFactor": 0.0,
        "roughnessFactor": 0.2
      },
      "emissiveFactor": [
        0.9,
        0.9,
        0.9
      ],
      "alphaMode": "OPAQUE",
      "doubleSided": true
    },
    {
      "name": "NorthPole",
      "pbrMetallicRoughness": {
        "baseColorFactor": [
          1.0,
          1.0,
          1.0,
          0.9
        ],
        "metallicFactor": 0.0,
        "roughnessFactor": 0.3
      },
      "emissiveFactor": [
        0.4,
        0.4,
        0.4
      ],
      "alphaMode": "BLEND",
      "doubleSided": true
    },
    {
      "name": "SouthPole",
      "pbrMetallicRoughness": {
        "baseColorFactor": [
          1.0,
          1.0,
          1.0,
          0.9
        ],
        "metallicFactor": 0.0,
        "roughnessFactor": 0.3
      },
      "emissiveFactor": [
        0.4,
        0.4,
        0.4
      ],
      "alphaMode": "BLEND",
      "doubleSided": true
    },
    {
      "name": "Halo",
      "pbrMetallicRoughness": {
        "baseColorFactor": [
          0.1384,
          0.0212,
          0.5457,
          0.08
        ],
        "metallicFactor": 0.0,
        "roughnessFactor": 0.4
      },
      "emissiveFactor": [
        0.05,
        0.01,
        0.18
      ],
      "alphaMode": "BLEND",
      "doubleSided": true
    }
  ],
  "accessors": [
    {
      "bufferView": 0,
      "componentType": 5126,
      "count": 1617,
      "type": "VEC3",
      "min": [
        -1.0,
        -1.0,
        -1.0
      ],
      "max": [
        1.0,
        1.0,
        1.0
      ]
    },
    {
      "bufferView": 1,
      "componentType": 5126,
      "count": 1617,
      "type": "VEC3"
    },
    {
      "bufferView": 2,
      "componentType": 5125,
      "count": 9216,
      "type": "SCALAR"
    },
    {
      "bufferView": 3,
      "componentType": 5126,
      "count": 2880,
      "type": "VEC3",
      "min": [
        -1.0034641027450562,
        -1.003999948501587,
        -0.800000011920929
      ],
      "max": [
        1.0034641027450562,
        1.003999948501587,
        0.800000011920929
      ]
    },
    {
      "bufferView": 4,
      "componentType": 5126,
      "count": 2880,
      "type": "VEC3"
    },
    {
      "bufferView": 5,
      "componentType": 5125,
      "count": 17280,
      "type": "SCALAR"
    },
    {
      "bufferView": 6,
      "componentType": 5126,
      "count": 4608,
      "type": "VEC3",
      "min": [
        -1.003999948501587,
        -1.003999948501587,
        -1.0034641027450562
      ],
      "max": [
        1.003999948501587,
        1.003999948501587,
        1.0034641027450562
      ]
    },
    {
      "bufferView": 7,
      "componentType": 5126,
      "count": 4608,
      "type": "VEC3"
    },
    {
      "bufferView": 8,
      "componentType": 5125,
      "count": 27648,
      "type": "SCALAR"
    },
    {
      "bufferView": 9,
      "componentType": 5126,
      "count": 67,
      "type": "VEC3",
      "min": [
        -1.2999999523162842,
        -0.029999999329447746,
        -0.029999999329447746
      ],
      "max": [
        1.2999999523162842,
        0.029999999329447746,
        0.029999999329447746
      ]
    },
    {
      "bufferView": 10,
      "componentType": 5126,
      "count": 67,
      "type": "VEC3"
    },
    {
      "bufferView": 11,
      "componentType": 5125,
      "count": 312,
      "type": "SCALAR"
    },
    {
      "bufferView": 12,
      "componentType": 5126,
      "count": 67,
      "type": "VEC3",
      "min": [
        -0.029999999329447746,
        -1.2999999523162842,
        -0.029999999329447746
      ],
      "max": [
        0.029999999329447746,
        1.2999999523162842,
        0.029999999329447746
      ]
    },
    {
      "bufferView": 13,
      "componentType": 5126,
      "count": 67,
      "type": "VEC3"
    },
    {
      "bufferView": 14,
      "componentType": 5125,
      "count": 312,
      "type": "SCALAR"
    },
    {
      "bufferView": 15,
      "componentType": 5126,
      "count": 67,
      "type": "VEC3",
      "min": [
        -0.029999999329447746,
        -0.029999999329447746,
        -1.2999999523162842
      ],
      "max": [
        0.029999999329447746,
        0.029999999329447746,
        1.2999999523162842
      ]
    },
    {
      "bufferView": 16,
      "componentType": 5126,
      "count": 67,
      "type": "VEC3"
    },
    {
      "bufferView": 17,
      "componentType": 5125,
      "count": 312,
      "type": "SCALAR"
    },
    {
      "bufferView": 18,
      "componentType": 5126,
      "count": 425,
      "type": "VEC3",
      "min": [
        -0.029999999329447746,
        -0.029999999329447746,
        -0.029999999329447746
      ],
      "max": [
        0.029999999329447746,
        0.029999999329447746,
        0.029999999329447746
      ]
    },
    {
      "bufferView": 19,
      "componentType": 5126,
      "count": 425,
      "type": "VEC3"
    },
    {
      "bufferView": 20,
      "componentType": 5125,
      "count": 2304,
      "type": "SCALAR"
    },
    {
      "bufferView": 21,
      "componentType": 5126,
      "count": 67,
      "type": "VEC3",
      "min": [
        -0.02800000086426735,
        -0.02800000086426735,
        0.0
      ],
      "max": [
        0.02800000086426735,
        0.02800000086426735,
        1.0
      ]
    },
    {
      "bufferView": 22,
      "componentType": 5126,
      "count": 67,
      "type": "VEC3"
    },
    {
      "bufferView": 23,
      "componentType": 5125,
      "count": 312,
      "type": "SCALAR"
    },
    {
      "bufferView": 24,
      "componentType": 5126,
      "count": 425,
      "type": "VEC3",
      "min": [
        -0.03999999910593033,
        -0.03999999910593033,
        0.9599999785423279
      ],
      "max": [
        0.03999999910593033,
        0.03999999910593033,
        1.0399999618530273
      ]
    },
    {
      "bufferView": 25,
      "componentType": 5126,
      "count": 425,
      "type": "VEC3"
    },
    {
      "bufferView": 26,
      "componentType": 5125,
      "count": 2304,
      "type": "SCALAR"
    },
    {
      "bufferView": 27,
      "componentType": 5126,
      "count": 247,
      "type": "VEC3",
      "min": [
        -0.02199999988079071,
        -0.021665770560503006,
        0.9779999852180481
      ],
      "max": [
        0.02199999988079071,
        0.021665770560503006,
        1.0219999551773071
      ]
    },
    {
      "bufferView": 28,
      "componentType": 5126,
      "count": 247,
      "type": "VEC3"
    },
    {
      "bufferView": 29,
      "componentType": 5125,
      "count": 1296,
      "type": "SCALAR"
    },
    {
      "bufferView": 30,
      "componentType": 5126,
      "count": 247,
      "type": "VEC3",
      "min": [
        -0.02199999988079071,
        -0.021665770560503006,
        -1.0219999551773071
      ],
      "max": [
        0.02199999988079071,
        0.021665770560503006,
        -0.9779999852180481
      ]
    },
    {
      "bufferView": 31,
      "componentType": 5126,
      "count": 247,
      "type": "VEC3"
    },
    {
      "bufferView": 32,
      "componentType": 5125,
      "count": 1296,
      "type": "SCALAR"
    },
    {
      "bufferView": 33,
      "componentType": 5126,
      "count": 1617,
      "type": "VEC3",
      "min": [
        -1.149999976158142,
        -1.149999976158142,
        -1.149999976158142
      ],
      "max": [
        1.149999976158142,
        1.149999976158142,
        1.149999976158142
      ]
    },
    {
      "bufferView": 34,
      "componentType": 5126,
      "count": 1617,
      "type": "VEC3"
    },
    {
      "bufferView": 35,
      "componentType": 5125,
      "count": 9216,
      "type": "SCALAR"
    }
  ],
  "bufferViews": [
    {
      "buffer": 0,
      "byteOffset": 0,
      "byteLength": 19404,
      "target": 34962
    },
    {
      "buffer": 0,
      "byteOffset": 19404,
      "byteLength": 19404,
      "target": 34962
    },
    {
      "buffer": 0,
      "byteOffset": 38808,
      "byteLength": 36864,
      "target": 34963
    },
    {
      "buffer": 0,
      "byteOffset": 75672,
      "byteLength": 34560,
      "target": 34962
    },
    {
      "buffer": 0,
      "byteOffset": 110232,
      "byteLength": 34560,
      "target": 34962
    },
    {
      "buffer": 0,
      "byteOffset": 144792,
      "byteLength": 69120,
      "target": 34963
    },
    {
      "buffer": 0,
      "byteOffset": 213912,
      "byteLength": 55296,
      "target": 34962
    },
    {
      "buffer": 0,
      "byteOffset": 269208,
      "byteLength": 55296,
      "target": 34962
    },
    {
      "buffer": 0,
      "byteOffset": 324504,
      "byteLength": 110592,
      "target": 34963
    },
    {
      "buffer": 0,
      "byteOffset": 435096,
      "byteLength": 804,
      "target": 34962
    },
    {
      "buffer": 0,
      "byteOffset": 435900,
      "byteLength": 804,
      "target": 34962
    },
    {
      "buffer": 0,
      "byteOffset": 436704,
      "byteLength": 1248,
      "target": 34963
    },
    {
      "buffer": 0,
      "byteOffset": 437952,
      "byteLength": 804,
      "target": 34962
    },
    {
      "buffer": 0,
      "byteOffset": 438756,
      "byteLength": 804,
      "target": 34962
    },
    {
      "buffer": 0,
      "byteOffset": 439560,
      "byteLength": 1248,
      "target": 34963
    },
    {
      "buffer": 0,
      "byteOffset": 440808,
      "byteLength": 804,
      "target": 34962
    },
    {
      "buffer": 0,
      "byteOffset": 441612,
      "byteLength": 804,
      "target": 34962
    },
    {
      "buffer": 0,
      "byteOffset": 442416,
      "byteLength": 1248,
      "target": 34963
    },
    {
      "buffer": 0,
      "byteOffset": 443664,
      "byteLength": 5100,
      "target": 34962
    },
    {
      "buffer": 0,
      "byteOffset": 448764,
      "byteLength": 5100,
      "target": 34962
    },
    {
      "buffer": 0,
      "byteOffset": 453864,
      "byteLength": 9216,
      "target": 34963
    },
    {
      "buffer": 0,
      "byteOffset": 463080,
      "byteLength": 804,
      "target": 34962
    },
    {
      "buffer": 0,
      "byteOffset": 463884,
      "byteLength": 804,
      "target": 34962
    },
    {
      "buffer": 0,
      "byteOffset": 464688,
      "byteLength": 1248,
      "target": 34963
    },
    {
      "buffer": 0,
      "byteOffset": 465936,
      "byteLength": 5100,
      "target": 34962
    },
    {
      "buffer": 0,
      "byteOffset": 471036,
      "byteLength": 5100,
      "target": 34962
    },
    {
      "buffer": 0,
      "byteOffset": 476136,
      "byteLength": 9216,
      "target": 34963
    },
    {
      "buffer": 0,
      "byteOffset": 485352,
      "byteLength": 2964,
      "target": 34962
    },
    {
      "buffer": 0,
      "byteOffset": 488316,
      "byteLength": 2964,
      "target": 34962
    },
    {
      "buffer": 0,
      "byteOffset": 491280,
      "byteLength": 5184,
      "target": 34963
    },
    {
      "buffer": 0,
      "byteOffset": 496464,
      "byteLength": 2964,
      "target": 34962
    },
    {
      "buffer": 0,
      "byteOffset": 499428,
      "byteLength": 2964,
      "target": 34962
    },
    {
      "buffer": 0,
      "byteOffset": 502392,
      "byteLength": 5184,
      "target": 34963
    },
    {
      "buffer": 0,
      "byteOffset": 507576,
      "byteLength": 19404,
      "target": 34962
    },
    {
      "buffer": 0,
      "byteOffset": 526980,
      "byteLength": 19404,
      "target": 34962
    },
    {
      "buffer": 0,
      "byteOffset": 546384,
      "byteLength": 36864,
      "target": 34963
    }
  ],
  "buffers": [
    {
      "byteLength": 583248,
      "uri": "data:application/octet-stream;base64,"
    }
  ]
}